name analog
datacolumns 19
datarows 64
range 0.3225 0.354
endheader
time	ground_force_vx	ground_force_vy	ground_force_vz	ground_force_px	ground_force_py	ground_force_pz	l_ground_force_vx	l_ground_force_vy	l_ground_force_vz	l_ground_force_px	l_ground_force_py	l_ground_force_pz	ground_torque_x	ground_torque_y	ground_torque_z	l_ground_torque_x	l_ground_torque_y	l_ground_torque_z
0.3225	-0.0	-0.0	-0.0	-0.0	-0.0	-0.0	-0.1053312942385673	0.1600957661867141	-814.177978515625	-0.0	-0.0	-0.0	-0.0	-0.0	-0.0	281019.28125	-9841.0205078125	-1331.2108154296875
0.323	-0.0	-0.0	-0.0	-0.0	-0.0	-0.0	-0.1719299256801605	0.2813677191734314	-815.924072265625	-0.0	-0.0	-0.0	-0.0	-0.0	-0.0	281017.84375	-9629.767578125	-1247.77685546875
0.3235	-0.0	-0.0	-0.0	-0.0	-0.0	-0.0	-0.0270959939807653	0.3424958884716034	-814.5493774414062	-0.0	-0.0	-0.0	-0.0	-0.0	-0.0	280877.25	-9800.2265625	-1216.157958984375
0.324	-0.0	-0.0	-0.0	-0.0	-0.0	-0.0	0.0160751584917306	0.2086526751518249	-812.6234741210938	-0.0	-0.0	-0.0	-0.0	-0.0	-0.0	280929.25	-9510.98046875	-1158.625
0.3245	-0.0	-0.0	-0.0	-0.0	-0.0	-0.0	0.3284063339233398	0.8001593351364136	-813.481689453125	-0.0	-0.0	-0.0	-0.0	-0.0	-0.0	280567.25	-9154.8125	-1215.788818359375
0.325	-0.0	-0.0	-0.0	-0.0	-0.0	-0.0	0.0625238716602325	0.8313960433006287	-811.448974609375	-0.0	-0.0	-0.0	-0.0	-0.0	-0.0	280129.375	-9046.6875	-1280.552001953125
0.3255	-0.0	-0.0	-0.0	-0.0	-0.0	-0.0	0.083534151315689	1.4234548807144165	-811.8589477539062	-0.0	-0.0	-0.0	-0.0	-0.0	-0.0	279949.3125	-8703.09765625	-1214.0736083984375
0.326	-0.0	-0.0	-0.0	-0.0	-0.0	-0.0	0.0785024091601371	1.844591856002808	-812.3753662109375	-0.0	-0.0	-0.0	-0.0	-0.0	-0.0	280120.65625	-8689.6669921875	-1208.8741455078125
0.3265	-0.0	-0.0	-0.0	-0.0	-0.0	-0.0	0.6894628405570984	2.192941188812256	-810.710205078125	-0.0	-0.0	-0.0	-0.0	-0.0	-0.0	279986.96875	-8704.5322265625	-1070.2392578125
0.327	-0.0	-0.0	-0.0	-0.0	-0.0	-0.0	0.7146815061569214	2.374738931655884	-809.1022338867188	-0.0	-0.0	-0.0	-0.0	-0.0	-0.0	280077.90625	-8542.251953125	-824.4705810546875
0.3275	-0.0	-0.0	-0.0	-0.0	-0.0	-0.0	1.41937255859375	2.306166172027588	-809.3916015625	-0.0	-0.0	-0.0	-0.0	-0.0	-0.0	279440.25	-8325.4189453125	-791.1032104492188
0.328	-0.0	-0.0	-0.0	-0.0	-0.0	-0.0	1.6611336469650269	3.071847438812256	-809.00341796875	-0.0	-0.0	-0.0	-0.0	-0.0	-0.0	279012.40625	-8370.3212890625	-538.5107421875
0.3285	-0.0	-0.0	-0.0	-0.0	-0.0	-0.0	1.6015973091125488	2.7618825435638428	-806.5592041015625	-0.0	-0.0	-0.0	-0.0	-0.0	-0.0	278870.5	-8196.5673828125	-471.1779479980469
0.329	-0.0	-0.0	-0.0	-0.0	-0.0	-0.0	1.6759977340698242	2.551863431930542	-807.862060546875	-0.0	-0.0	-0.0	-0.0	-0.0	-0.0	278230.0625	-7965.701171875	-472.7845153808594
0.3295	-0.0	-0.0	-0.0	-0.0	-0.0	-0.0	1.5315476655960083	2.561328887939453	-804.79443359375	-0.0	-0.0	-0.0	-0.0	-0.0	-0.0	277810.34375	-7573.37646484375	-391.7389221191406
0.33	-0.0	-0.0	-0.0	-0.0	-0.0	-0.0	1.956257700920105	2.277963161468506	-802.64501953125	-0.0	-0.0	-0.0	-0.0	-0.0	-0.0	276875.875	-7605.43798828125	-179.10438537597656
0.3305	-0.0	-0.0	-0.0	-0.0	-0.0	-0.0	1.9699256420135496	2.2125942707061768	-800.2374877929688	-0.0	-0.0	-0.0	-0.0	-0.0	-0.0	276450.875	-7491.88427734375	-30.75876808166504
0.331	-0.0	-0.0	-0.0	-0.0	-0.0	-0.0	2.0493712425231934	1.868230938911438	-799.8353271484375	-0.0	-0.0	-0.0	-0.0	-0.0	-0.0	276285.1875	-7362.25390625	-52.87007141113281
0.3315	-0.0	-0.0	-0.0	-0.0	-0.0	-0.0	2.585930347442627	1.7531745433807373	-798.1781005859375	-0.0	-0.0	-0.0	-0.0	-0.0	-0.0	275689.625	-7091.58349609375	31.948457717895508
0.332	-0.0	-0.0	-0.0	-0.0	-0.0	-0.0	2.8167903423309326	1.740203619003296	-798.42333984375	-0.0	-0.0	-0.0	-0.0	-0.0	-0.0	275320.625	-7142.78125	211.56187438964844
0.3325	-0.0	-0.0	-0.0	-0.0	-0.0	-0.0	2.758673667907715	1.652307629585266	-798.109619140625	-0.0	-0.0	-0.0	-0.0	-0.0	-0.0	275431.25	-7076.61865234375	300.4665222167969
0.333	-0.0	-0.0	-0.0	-0.0	-0.0	-0.0	3.894734144210816	1.7749366760253906	-796.7304077148438	-0.0	-0.0	-0.0	-0.0	-0.0	-0.0	275499.15625	-6684.8798828125	451.0372009277344
0.3335	-0.0	-0.0	-0.0	-0.0	-0.0	-0.0	4.253908157348633	1.5224242210388184	-795.4171142578125	-0.0	-0.0	-0.0	-0.0	-0.0	-0.0	275131.65625	-6776.0966796875	712.53369140625
0.334	-0.0	-0.0	-0.0	-0.0	-0.0	-0.0	4.499427318572998	1.6904690265655518	-796.6663208007812	-0.0	-0.0	-0.0	-0.0	-0.0	-0.0	275368.5625	-6643.14599609375	779.0446166992188
0.3345	-0.0	-0.0	-0.0	-0.0	-0.0	-0.0	4.088872909545898	2.0273282527923584	-794.2877807617188	-0.0	-0.0	-0.0	-0.0	-0.0	-0.0	274823.15625	-6372.94189453125	1012.0003051757812
0.335	-0.0	-0.0	-0.0	-0.0	-0.0	-0.0	4.366966724395752	1.3488852977752686	-792.57421875	-0.0	-0.0	-0.0	-0.0	-0.0	-0.0	274778.375	-6307.8310546875	902.7973022460938
0.3355	-0.0	-0.0	-0.0	-0.0	-0.0	-0.0	4.165451526641846	1.405271291732788	-790.9061889648438	-0.0	-0.0	-0.0	-0.0	-0.0	-0.0	274332.75	-6303.78759765625	1014.5419921875
0.336	-0.0	-0.0	-0.0	-0.0	-0.0	-0.0	4.346828460693359	1.3209357261657717	-790.40234375	-0.0	-0.0	-0.0	-0.0	-0.0	-0.0	273926.34375	-6294.04541015625	1070.0260009765625
0.3365	-0.0	-0.0	-0.0	-0.0	-0.0	-0.0	4.242776393890381	1.4093284606933594	-788.7637329101562	-0.0	-0.0	-0.0	-0.0	-0.0	-0.0	273989.21875	-6259.88232421875	950.0596923828124
0.337	-0.0	-0.0	-0.0	-0.0	-0.0	-0.0	4.173192977905273	1.5127767324447632	-789.736328125	-0.0	-0.0	-0.0	-0.0	-0.0	-0.0	273915.4375	-6260.935546875	626.2970581054688
0.3375	-0.0	-0.0	-0.0	-0.0	-0.0	-0.0	4.088146686553955	1.8621731996536253	-790.115478515625	-0.0	-0.0	-0.0	-0.0	-0.0	-0.0	274237.625	-6440.01904296875	714.07177734375
0.338	-0.0	-0.0	-0.0	-0.0	-0.0	-0.0	4.524250030517578	2.561328887939453	-789.7522583007812	-0.0	-0.0	-0.0	-0.0	-0.0	-0.0	274850.625	-6413.55322265625	862.9038696289062
0.3385	-0.0	-0.0	-0.0	-0.0	-0.0	-0.0	4.542273998260498	3.1795806884765625	-788.3701782226562	-0.0	-0.0	-0.0	-0.0	-0.0	-0.0	275074.21875	-6422.36328125	663.87939453125
0.339	-0.0	-0.0	-0.0	-0.0	-0.0	-0.0	4.786838054656982	3.3491666316986084	-786.6664428710938	-0.0	-0.0	-0.0	-0.0	-0.0	-0.0	274622.71875	-6516.162109375	833.6630249023438
0.3395	-0.0	-0.0	-0.0	-0.0	-0.0	-0.0	4.35724401473999	3.8654143810272217	-788.021484375	-0.0	-0.0	-0.0	-0.0	-0.0	-0.0	274515.9375	-6420.951171875	857.3721313476562
0.34	-0.0	-0.0	-0.0	-0.0	-0.0	-0.0	4.606114387512207	3.5396840572357178	-784.194580078125	-0.0	-0.0	-0.0	-0.0	-0.0	-0.0	273947.25	-6533.517578125	718.4013671875
0.3405	-0.0	-0.0	-0.0	-0.0	-0.0	-0.0	4.330069541931152	3.702836513519287	-783.0283813476562	-0.0	-0.0	-0.0	-0.0	-0.0	-0.0	273467.625	-6034.17919921875	513.9127807617188
0.341	-0.0	-0.0	-0.0	-0.0	-0.0	-0.0	3.98207688331604	3.961322546005249	-780.0177612304688	-0.0	-0.0	-0.0	-0.0	-0.0	-0.0	272531.8125	-5982.7939453125	480.6717224121094
0.3415	-0.0	-0.0	-0.0	-0.0	-0.0	-0.0	2.9274559020996094	3.2743582725524902	-776.8240356445312	-0.0	-0.0	-0.0	-0.0	-0.0	-0.0	272281.5625	-5925.537109375	420.3785400390625
0.342	-0.0	-0.0	-0.0	-0.0	-0.0	-0.0	2.575782537460327	3.1890480518341064	-774.717529296875	-0.0	-0.0	-0.0	-0.0	-0.0	-0.0	271448.125	-6059.73681640625	153.08193969726562
0.3425	-0.0	-0.0	-0.0	-0.0	-0.0	-0.0	2.4682962894439697	2.914615631103516	-772.6970825195312	-0.0	-0.0	-0.0	-0.0	-0.0	-0.0	271004.3125	-5947.80224609375	85.22586059570312
0.343	-0.0	-0.0	-0.0	-0.0	-0.0	-0.0	1.945516347885132	3.3562240600585938	-770.2164916992188	-0.0	-0.0	-0.0	-0.0	-0.0	-0.0	270704.6875	-5748.70458984375	-30.498062133789062
0.3435	-0.0	-0.0	-0.0	-0.0	-0.0	-0.0	1.8539624214172363	3.706535816192627	-770.9267578125	-0.0	-0.0	-0.0	-0.0	-0.0	-0.0	270740.6875	-5753.53955078125	-199.3933258056641
0.34400000000000003	-0.0	-0.0	-0.0	-0.0	-0.0	-0.0	0.8812288045883179	3.7182905673980713	-767.13232421875	-0.0	-0.0	-0.0	-0.0	-0.0	-0.0	270017.84375	-5810.18701171875	-325.7162170410156
0.34450000000000003	-0.0	-0.0	-0.0	-0.0	-0.0	-0.0	0.4206111133098602	3.965909957885742	-768.0770874023438	-0.0	-0.0	-0.0	-0.0	-0.0	-0.0	269478.875	-5777.150390625	-332.6697998046875
0.34500000000000003	-0.0	-0.0	-0.0	-0.0	-0.0	-0.0	-0.1028048917651176	4.054378032684326	-764.303955078125	-0.0	-0.0	-0.0	-0.0	-0.0	-0.0	268796.4375	-5852.220703125	-741.5868530273438
0.34550000000000003	-0.0	-0.0	-0.0	-0.0	-0.0	-0.0	-1.5967941284179688	3.256918430328369	-760.4522705078125	-0.0	-0.0	-0.0	-0.0	-0.0	-0.0	267794.1875	-5768.7275390625	-892.9964599609375
0.34600000000000003	-0.0	-0.0	-0.0	-0.0	-0.0	-0.0	-1.9570086002349851	3.093932867050171	-758.0081787109375	-0.0	-0.0	-0.0	-0.0	-0.0	-0.0	267195.34375	-5833.3974609375	-1098.1754150390625
0.34650000000000003	-0.0	-0.0	-0.0	-0.0	-0.0	-0.0	-3.0943291187286377	2.660152673721313	-756.9503173828125	-0.0	-0.0	-0.0	-0.0	-0.0	-0.0	266178.25	-5573.74755859375	-1305.86083984375
0.34700000000000003	-0.0	-0.0	-0.0	-0.0	-0.0	-0.0	-2.4890553951263428	3.340831995010376	-756.5709838867188	-0.0	-0.0	-0.0	-0.0	-0.0	-0.0	266208.25	-5817.48046875	-1072.2734375
0.34750000000000003	-0.0	-0.0	-0.0	-0.0	-0.0	-0.0	-1.8629264831542969	3.63116192817688	-753.9366455078125	-0.0	-0.0	-0.0	-0.0	-0.0	-0.0	266390.125	-6131.013671875	-1066.6331787109375
0.34800000000000003	-0.0	-0.0	-0.0	-0.0	-0.0	-0.0	-1.0620737075805664	4.590282917022705	-757.99853515625	-0.0	-0.0	-0.0	-0.0	-0.0	-0.0	267188.9375	-6328.14501953125	-683.504638671875
0.34850000000000003	-0.0	-0.0	-0.0	-0.0	-0.0	-0.0	0.5322647094726562	5.043829917907715	-758.7533569335938	-0.0	-0.0	-0.0	-0.0	-0.0	-0.0	267637.25	-6758.51171875	-234.85548400878903
0.34900000000000003	-0.0	-0.0	-0.0	-0.0	-0.0	-0.0	0.7236944437026978	5.759505271911621	-759.083251953125	-0.0	-0.0	-0.0	-0.0	-0.0	-0.0	268178.03125	-6983.59326171875	117.5109634399414
0.34950000000000003	-0.0	-0.0	-0.0	-0.0	-0.0	-0.0	1.9516372680664065	6.95703649520874	-760.7835083007812	-0.0	-0.0	-0.0	-0.0	-0.0	-0.0	268192.8125	-7144.888671875	359.1235656738281
0.35000000000000003	-0.0	-0.0	-0.0	-0.0	-0.0	-0.0	1.9450324773788448	6.175942420959473	-761.848876953125	-0.0	-0.0	-0.0	-0.0	-0.0	-0.0	268888.5	-7668.533203125	331.4649658203125
0.35050000000000003	-0.0	-0.0	-0.0	-0.0	-0.0	-0.0	2.4817488193511963	6.005874633789063	-762.5132446289062	-0.0	-0.0	-0.0	-0.0	-0.0	-0.0	269091.6875	-7468.40576171875	537.9631958007812
0.35100000000000003	-0.0	-0.0	-0.0	-0.0	-0.0	-0.0	2.659230709075928	6.35291051864624	-761.1422729492188	-0.0	-0.0	-0.0	-0.0	-0.0	-0.0	268614.1875	-7571.04833984375	655.4140014648438
0.35150000000000003	-0.0	-0.0	-0.0	-0.0	-0.0	-0.0	2.6593031883239746	5.831242561340332	-758.7620849609375	-0.0	-0.0	-0.0	-0.0	-0.0	-0.0	268054.8125	-7623.197265625	564.9625244140625
0.352	-0.0	-0.0	-0.0	-0.0	-0.0	-0.0	2.570640802383423	5.827268123626709	-758.0159301757812	-0.0	-0.0	-0.0	-0.0	-0.0	-0.0	267787.3125	-7460.39697265625	421.24261474609375
0.3525	-0.0	-0.0	-0.0	-0.0	-0.0	-0.0	2.7538344860076904	5.554807186126709	-757.2799072265625	-0.0	-0.0	-0.0	-0.0	-0.0	-0.0	267082.65625	-7449.2080078125	709.5880737304688
0.353	-0.0	-0.0	-0.0	-0.0	-0.0	-0.0	2.389636516571045	5.216509819030762	-757.2733764648438	-0.0	-0.0	-0.0	-0.0	-0.0	-0.0	267215.25	-7584.51025390625	505.4557189941406
0.3535	-0.0	-0.0	-0.0	-0.0	-0.0	-0.0	2.8297910690307617	5.292169094085693	-756.9465942382812	-0.0	-0.0	-0.0	-0.0	-0.0	-0.0	266824.3125	-7443.9892578125	679.6412963867188
0.354	-0.0	-0.0	-0.0	-0.0	-0.0	-0.0	2.835308313369751	4.947725296020508	-755.2217407226562	-0.0	-0.0	-0.0	-0.0	-0.0	-0.0	266572.84375	-7619.861328125	390.054931640625
